HIERARCHY
ROOT Hips
{
	OFFSET 0.000000 0.000000 0.000000
	CHANNELS 6 Xposition Yposition Zposition Zrotation Yrotation Xrotation 
	JOINT LHipJoint
	{
		OFFSET 0.000000 0.000000 0.000000
		CHANNELS 3 Zrotation Yrotation Xrotation
		JOINT LeftUpLeg
		{
			OFFSET 1.363060 -1.794630 0.839290
			CHANNELS 3 Zrotation Yrotation Xrotation
			JOINT LeftLeg
			{
				OFFSET 2.448110 -6.726130 0.000000
				CHANNELS 3 Zrotation Yrotation Xrotation
				JOINT LeftFoot
				{
					OFFSET 2.562200 -7.039590 0.000000
					CHANNELS 3 Zrotation Yrotation Xrotation
					JOINT LeftToeBase
					{
						OFFSET 0.157640 -0.433110 2.322550
						CHANNELS 3 Zrotation Yrotation Xrotation
						End Site
						{
							OFFSET 0.000000 0.000000 0.000000
						}
					}
				}
			}
		}
	}
	JOINT RHipJoint
	{
		OFFSET 0.000000 0.000000 0.000000
		CHANNELS 3 Zrotation Yrotation Xrotation
		JOINT RightUpLeg
		{
			OFFSET -1.305520 -1.794630 0.839290
			CHANNELS 3 Zrotation Yrotation Xrotation
			JOINT RightLeg
			{
				OFFSET -2.542530 -6.985550 0.000000
				CHANNELS 3 Zrotation Yrotation Xrotation
				JOINT RightFoot
				{
					OFFSET -2.568260 -7.056230 0.000000
					CHANNELS 3 Zrotation Yrotation Xrotation
					JOINT RightToeBase
					{
						OFFSET -0.164730 -0.452590 2.363150
						CHANNELS 3 Zrotation Yrotation Xrotation
						End Site
						{
							OFFSET 0.000000 0.000000 0.000000
						}
					}
				}
			}
		}
	}
	JOINT LowerBack
	{
		OFFSET 0.000000 0.000000 0.000000
		CHANNELS 3 Zrotation Yrotation Xrotation
		JOINT Spine
		{
			OFFSET 0.028270 2.035590 -0.193380
			CHANNELS 3 Zrotation Yrotation Xrotation
			JOINT Spine1
			{
				OFFSET 0.056720 2.048850 -0.042750
				CHANNELS 3 Zrotation Yrotation Xrotation
				JOINT Neck
				{
					OFFSET 0.000000 0.000000 0.000000
					CHANNELS 3 Zrotation Yrotation Xrotation
					JOINT Neck1
					{
						OFFSET -0.054170 1.746240 0.172020
						CHANNELS 3 Zrotation Yrotation Xrotation
						JOINT Head
						{
							OFFSET 0.104070 1.761360 -0.123970
							CHANNELS 3 Zrotation Yrotation Xrotation
							End Site
							{
								OFFSET 0.000000 0.000000 0.000000
							}
						}
					}
				}
				JOINT LeftShoulder
				{
					OFFSET 0.000000 0.000000 0.000000
					CHANNELS 3 Zrotation Yrotation Xrotation
					JOINT LeftArm
					{
						OFFSET 3.362410 1.200890 -0.311210
						CHANNELS 3 Zrotation Yrotation Xrotation
						JOINT LeftForeArm
						{
							OFFSET 4.983000 -0.000000 -0.000000
							CHANNELS 3 Zrotation Yrotation Xrotation
							JOINT LeftHand
							{
								OFFSET 3.483560 -0.000000 -0.000000
								CHANNELS 3 Zrotation Yrotation Xrotation
								JOINT LeftFingerBase
								{
									OFFSET 0.000000 0.000000 0.000000
									CHANNELS 3 Zrotation Yrotation Xrotation
									JOINT LeftHandIndex1
									{
										OFFSET 0.715260 -0.000000 -0.000000
										CHANNELS 3 Zrotation Yrotation Xrotation
										End Site
										{
											OFFSET 0.000000 0.000000 0.000000
										}
									}
								}
								JOINT LThumb
								{
									OFFSET 0.000000 0.000000 0.000000
									CHANNELS 3 Zrotation Yrotation Xrotation
									End Site
									{
										OFFSET 0.000000 0.000000 0.000000
									}
								}
							}
						}
					}
				}
				JOINT RightShoulder
				{
					OFFSET 0.000000 0.000000 0.000000
					CHANNELS 3 Zrotation Yrotation Xrotation
					JOINT RightArm
					{
						OFFSET -3.136600 1.374050 -0.404650
						CHANNELS 3 Zrotation Yrotation Xrotation
						JOINT RightForeArm
						{
							OFFSET -5.241900 -0.000000 -0.000000
							CHANNELS 3 Zrotation Yrotation Xrotation
							JOINT RightHand
							{
								OFFSET -3.444170 -0.000000 -0.000000
								CHANNELS 3 Zrotation Yrotation Xrotation
								JOINT RightFingerBase
								{
									OFFSET 0.000000 0.000000 0.000000
									CHANNELS 3 Zrotation Yrotation Xrotation
									JOINT RightHandIndex1
									{
										OFFSET -0.622530 -0.000000 -0.000000
										CHANNELS 3 Zrotation Yrotation Xrotation
										End Site
										{
											OFFSET 0.000000 0.000000 0.000000
										}
									}
								}
								JOINT RThumb
								{
									OFFSET 0.000000 0.000000 0.000000
									CHANNELS 3 Zrotation Yrotation Xrotation
									End Site
									{
										OFFSET 0.000000 0.000000 0.000000
									}
								}
							}
						}
					}
				}
			}
		}
	}
}
MOTION
Frames: 7
Frame Time: 0.008333
2.429139 17.172151 0.928337 -118.077866 -81.712208 135.239259 -10.834644 -0.281360 5.794656 2.848653 -9.996791 -46.583739 1.102765 2.000070 56.099165 3.017141 15.492611 -11.366940 -0.593701 -0.000000 -15.391000 6.770495 -2.605379 5.807748 22.692460 9.035117 -10.603873 4.800374 2.586169 -1.679340 -0.058195 2.210265 -8.071375 179.943100 -0.000000 -4.086401 5.510497 0.063362 -12.611629 -0.111616 -1.167698 -5.073091 -8.385784 -1.149261 1.325271 14.034899 -10.913651 -8.285956 -4.318847 -0.356524 -0.092037 0.000000 0.000000 0.000000 0.584992 12.746441 0.897938 -60.074979 7.832486 -7.065387 -2.321897 -41.529547 0.022702 19.177019 -6.641001 -1.123199 -0.103645 -0.025973 -0.000000 0.000000 0.000000 0.000000 0.000000 0.000000 0.000000 22.188157 -4.870391 -1.619766 66.474364 7.746277 7.584329 0.919695 70.527331 -0.015753 -10.037406 20.683079 -1.898953 0.139980 -0.434110 0.000000 0.000000 0.000000 0.000000 0.000000 0.000000 0.000000 
2.177427 17.165482 0.889457 -122.863778 -81.752584 140.018628 -10.608542 -0.298996 6.052031 2.933766 -10.518423 -47.368981 0.943336 1.814495 52.680952 2.952893 14.767560 -11.022890 -0.437400 -0.000000 -16.090400 6.918271 -2.575289 5.539795 22.271126 8.180341 -8.962027 4.749529 2.723466 -2.834782 0.059346 2.871540 -8.002090 179.964800 0.000000 -4.750500 4.918569 0.484042 -12.615162 -0.288103 -0.675965 -5.095402 -8.431070 -0.659558 1.258364 14.013331 -10.411172 -8.192892 -4.304240 -0.355806 -0.072879 0.000000 0.000000 0.000000 0.501613 13.434789 0.987631 -58.252362 8.152560 -8.458851 -2.412580 -40.759233 0.025350 19.080399 -6.357677 -1.068110 -0.106148 -0.035004 -0.000000 0.000000 0.000000 0.000000 0.000000 0.000000 0.000000 22.075980 -4.017509 -1.642156 66.953453 8.330793 10.505587 0.914694 71.190490 -0.016749 -9.648523 20.766791 -1.834595 0.137366 -0.455253 -0.000000 0.000000 0.000000 0.000000 0.000000 0.000000 0.000000 
1.925465 17.152224 0.853368 -127.743407 -81.689638 144.844158 -10.430607 -0.311863 6.266764 3.000437 -10.801223 -47.926479 0.776284 1.608296 48.919231 2.881112 14.052898 -10.507718 -0.245800 0.000000 -17.235400 7.013511 -2.560857 5.272179 21.881439 7.384111 -7.277216 4.697917 2.847359 -3.940900 0.161781 3.488396 -7.973547 179.982400 -0.000001 -5.482100 4.390655 0.898419 -12.570488 -0.448585 -0.195356 -5.110668 -8.463784 -0.180511 1.186870 13.944422 -9.866197 -8.091206 -4.278910 -0.354026 -0.051499 0.000000 0.000000 0.000000 0.357669 14.162896 1.072461 -56.392449 8.429813 -9.864975 -2.499122 -40.108233 0.027808 18.999067 -6.191435 -1.034321 -0.109669 -0.042562 -0.000000 0.000000 0.000000 0.000000 0.000000 0.000000 0.000000 21.859895 -3.138703 -1.661563 67.424602 9.022175 13.418482 0.907962 71.872152 -0.017829 -9.250586 20.851323 -1.768057 0.134383 -0.478065 -0.000000 0.000000 0.000000 0.000000 0.000000 0.000000 0.000000 
1.673152 17.132303 0.820509 -132.295801 -81.531518 149.304765 -10.301120 -0.331092 6.438889 3.040945 -10.837075 -48.281779 0.603470 1.377578 44.853328 2.805309 13.379276 -9.844471 -0.028700 0.000001 -18.763000 7.061408 -2.566104 5.013761 21.541639 6.671048 -5.561793 4.646311 2.956135 -4.995791 0.247923 4.045659 -7.982679 179.995200 0.000000 -6.223999 3.947530 1.299688 -12.486100 -0.587348 0.264026 -5.118166 -8.481748 0.278321 1.119819 13.826301 -9.278220 -7.987121 -4.241432 -0.351037 -0.029492 0.000000 0.000000 0.000000 0.166989 14.958674 1.152781 -54.528497 8.616497 -11.297420 -2.581641 -39.522544 0.030062 18.935649 -6.144619 -1.022134 -0.113994 -0.048592 -0.000000 0.000000 0.000000 0.000000 0.000000 0.000000 0.000000 21.532296 -2.237548 -1.682885 67.888977 9.816454 16.312951 0.897660 72.575389 -0.019008 -8.850863 20.924262 -1.699544 0.130962 -0.502058 -0.000000 0.000000 0.000000 0.000000 0.000000 0.000000 0.000000 
1.420433 17.105792 0.790969 -136.242622 -81.273466 153.108006 -10.208220 -0.347641 6.583730 3.039843 -10.612702 -48.456555 0.423656 1.119248 40.523907 2.727934 12.765653 -9.075166 0.201900 -0.000000 -20.523001 7.041753 -2.621701 4.712159 21.347967 6.077327 -4.771818 4.627977 2.832611 -3.887810 0.243831 4.607227 -9.140187 -179.996500 0.000000 -6.910400 3.615768 1.690379 -12.346680 -0.695908 0.699986 -5.115178 -8.485033 0.713994 1.056932 13.657200 -8.660573 -7.882823 -4.191067 -0.346796 -0.007247 0.000000 0.000000 0.000000 -0.073688 15.800861 1.229143 -52.674142 8.743908 -12.768937 -2.656459 -39.012066 0.032106 18.888458 -6.193190 -1.027248 -0.118707 -0.053270 -0.000000 0.000000 0.000000 0.000000 0.000000 0.000000 0.000000 21.088139 -1.330576 -1.704646 68.355313 10.721809 19.184844 0.883967 73.288463 -0.020174 -8.450486 20.980206 -1.628956 0.127194 -0.526639 0.000000 0.000000 0.000000 0.000000 0.000000 0.000000 0.000000 
1.167376 17.072992 0.764741 -139.450523 -80.952673 156.144249 -10.152570 -0.373255 6.688341 2.966518 -10.120458 -48.488525 0.228479 0.833085 35.972083 2.647482 12.208471 -8.247592 0.434800 0.000000 -22.366699 7.002393 -2.694001 4.421508 21.213610 5.541842 -3.964110 4.618962 2.697142 -2.728180 0.216219 5.135975 -10.287179 -179.992400 -0.000000 -7.457600 3.394657 2.063447 -12.175621 -0.776737 1.106699 -5.104386 -8.474053 1.121702 1.003349 13.439183 -8.023064 -7.782200 -4.128320 -0.341399 0.014376 0.000000 0.000000 0.000000 -0.355849 16.683326 1.300797 -50.847791 8.811223 -14.288157 -2.721743 -38.560171 0.033881 18.857116 -6.309926 -1.044765 -0.123580 -0.056581 0.000000 0.000000 0.000000 0.000000 0.000000 0.000000 0.000000 20.532363 -0.429489 -1.727031 68.827463 11.737088 22.023782 0.866833 74.010553 -0.021235 -8.054717 21.014954 -1.556997 0.123241 -0.551214 0.000000 0.000000 0.000000 0.000000 0.000000 0.000000 0.000000 
0.913935 17.034260 0.741737 -141.919411 -80.581734 158.416781 -10.129696 -0.407011 6.750009 2.786452 -9.341403 -48.407817 0.007037 0.518373 31.241069 2.556633 11.673324 -7.403521 0.658900 -0.000000 -24.216000 6.955919 -2.779642 4.145724 21.131168 5.036314 -3.063215 4.619857 2.567015 -1.691000 0.181221 5.657915 -11.299623 -179.991601 0.000000 -7.791500 3.286362 2.421048 -11.974646 -0.829837 1.486302 -5.085077 -8.449688 1.503563 0.963431 13.176724 -7.378957 -7.690458 -4.053688 -0.334882 0.034019 0.000000 0.000000 0.000000 -0.668549 17.605755 1.366603 -49.070456 8.807036 -15.862811 -2.775961 -38.143708 0.035291 18.842951 -6.465924 -1.070086 -0.128373 -0.058436 -0.000000 0.000000 0.000000 0.000000 0.000000 0.000000 0.000000 19.873311 0.452127 -1.750008 69.305517 12.863529 24.819664 0.846530 74.741124 -0.022114 -7.673197 21.027876 -1.485962 0.119372 -0.575229 0.000000 0.000000 0.000000 0.000000 0.000000 0.000000 0.000000 
